#!OML:ASF E:\Style4\Style4.ASF
:FULLY-SPECIFIED
:DEGREES
1743
root -0.421397 17.7308 -2.25652 1.66139 -4.3419 3.16283
lowerback 8.02077 3.45611 -0.28084
upperback 3.95321 4.54947 -1.18678
thorax -0.32326 2.27946 -1.43077
lowerneck 0.0258389 -4.64017 -5.7155
upperneck 3.83815 -6.28013 4.54131
head 1.56187 -3.15175 2.33247
rclavicle 3.5334e-014 -2.5842e-015
rhumerus 4.72215 -4.42734 -43.8986
rradius 86.3223
rwrist 0.316319
rhand -26.9105 14.4579
rfingers 7.12502
rthumb -0.333635 -15.5216
lclavicle 3.5334e-014 -2.5842e-015
lhumerus -21.0633 -6.15815 51.2883
lradius 100.376
lwrist 5.39698
lhand -20.3334 28.3708
lfingers 7.12502
lthumb 6.0179 58.2653
rfemur -18.8126 3.45368 15.902
rtibia 35.7036
rfoot -18.0099 -11.3131
rtoes -9.25998
lfemur -13.0509 3.72498 -21.9476
ltibia 30.9516
lfoot -20.0179 10.5706
ltoes -12.3475
1744
root -0.413065 17.735 -2.25627 1.70528 -4.46102 3.32249
lowerback 8.01131 3.49898 -0.09987
upperback 3.91647 4.61831 -1.25522
thorax -0.334356 2.3169 -1.60734
lowerneck 0.0540315 -4.70339 -5.66924
upperneck 3.77894 -6.36118 4.43775
head 1.53604 -3.19301 2.28904
rclavicle -2.25621e-014 2.38542e-015
rhumerus 5.02415 -3.93536 -44.8393
rradius 87.0046
rwrist -0.297601
rhand -25.1958 14.2711
rfingers 7.12502
rthumb 1.32244 -15.7046
lclavicle -2.25621e-014 2.38542e-015
lhumerus -21.907 -5.86802 51.6943
lradius 100.832
lwrist 5.39605
lhand -21.0401 27.8112
lfingers 7.12502
lthumb 5.33561 57.724
rfemur -18.9138 3.50285 15.6877
rtibia 35.6775
rfoot -17.8909 -11.3113
rtoes -9.77474
lfemur -12.9983 3.77262 -22.1672
ltibia 30.7772
lfoot -19.9864 10.6719
ltoes -12.3743
1745
root -0.407024 17.7368 -2.2547 1.72302 -4.68029 3.54928
lowerback 7.99536 3.58023 -0.0141319
upperback 3.89819 4.73117 -1.35697
thorax -0.325622 2.37551 -1.7675
lowerneck 0.0411277 -4.77955 -5.54777
upperneck 3.75863 -6.45743 4.28475
head 1.52552 -3.24107 2.21432
rclavicle -2.93207e-014 9.54166e-015
rhumerus 5.2175 -3.33528 -45.7815
rradius 87.5651
rwrist -0.382072
rhand -24.8959 14.4018
rfingers 7.12502
rthumb 1.61209 -15.5719
lclavicle -2.93207e-014 9.54166e-015
lhumerus -22.7251 -5.50172 52.0983
lradius 101.395
lwrist 5.32302
lhand -21.4561 27.3825
lfingers 7.12502
lthumb 4.93392 57.3051
rfemur -18.9699 3.63415 15.4056
rtibia 35.6794
rfoot -17.9289 -11.1465
rtoes -9.51712
lfemur -12.9687 3.8857 -22.4475
ltibia 30.7023
lfoot -20.0052 10.7425
ltoes -12.2112
1746
root -0.402936 17.7363 -2.25388 1.73887 -4.88318 3.58371
lowerback 7.99586 3.64375 0.167402
upperback 3.89517 4.82847 -1.32956
thorax -0.313389 2.42633 -1.84748
lowerneck -0.117956 -4.85396 -5.51341
upperneck 3.89382 -6.54331 4.05209
head 1.59018 -3.28524 2.12467
rclavicle 2.69353e-014 -7.95139e-015
rhumerus 5.37254 -2.54626 -46.5544
rradius 88.1369
rwrist -0.275102
rhand -25.2148 14.6128
rfingers 7.12502
rthumb 1.3041 -15.363
lclavicle 2.69353e-014 -7.95139e-015
lhumerus -23.5208 -5.00343 52.6121
lradius 101.908
lwrist 5.30895
lhand -21.9154 26.8474
lfingers 7.12502
lthumb 4.49042 56.7798
rfemur -19.0001 3.79449 15.3482
rtibia 35.6617
rfoot -17.969 -11.0328
rtoes -9.17601
lfemur -12.9955 3.91717 -22.5104
ltibia 30.7557
lfoot -20.1127 10.8556
ltoes -11.9637
1747
root -0.402215 17.7342 -2.25428 1.73617 -5.02668 3.39684
lowerback 8.04095 3.69522 0.526453
upperback 3.89595 4.92309 -1.20888
thorax -0.314593 2.47711 -1.93284
lowerneck -0.24345 -4.90359 -5.53942
upperneck 4.02232 -6.59713 3.84566
head 1.64863 -3.31458 2.05614
rclavicle -1.36167e-014 -8.74653e-015
rhumerus 5.44838 -1.78383 -47.2906
rradius 88.8131
rwrist -0.208883
rhand -25.2419 14.7406
rfingers 7.12502
rthumb 1.27791 -15.2353
lclavicle -1.36167e-014 -8.74653e-015
lhumerus -24.3061 -4.50706 53.1963
lradius 102.323
lwrist 5.24814
lhand -22.5575 25.9338
lfingers 7.12502
lthumb 3.87044 55.8784
rfemur -19.0105 4.03342 15.5586
rtibia 35.6588
rfoot -17.9405 -11.1139
rtoes -9.20685
lfemur -13.0402 3.97093 -22.3017
ltibia 30.8852
lfoot -20.2408 10.8862
ltoes -11.8084
1748
root -0.405666 17.7318 -2.25399 1.6385 -5.25366 2.92746
lowerback 8.20772 3.77869 1.1425
upperback 3.91855 5.07978 -1.03245
thorax -0.339058 2.56152 -2.11585
lowerneck -0.310688 -4.98304 -5.50319
upperneck 4.11189 -6.6945 3.66348
head 1.68478 -3.36497 1.98522
rclavicle 3.78685e-014 -5.1684e-015
rhumerus 5.45193 -1.09508 -48.125
rradius 89.4975
rwrist -0.149321
rhand -25.3824 14.73
rfingers 7.12502
rthumb 1.14229 -15.2466
lclavicle 3.78685e-014 -5.1684e-015
lhumerus -25.1502 -4.1151 53.7766
lradius 102.829
lwrist 5.17559
lhand -23.292 24.9285
lfingers 7.12502
lthumb 3.16115 54.8849
rfemur -18.9252 4.44865 16.1255
rtibia 35.7282
rfoot -17.9139 -11.35
rtoes -9.29791
lfemur -12.9399 4.18144 -21.7438
ltibia 30.9868
lfoot -20.3738 10.8516
ltoes -11.6451
1749
root -0.405086 17.7272 -2.25513 1.62861 -5.41114 2.89969
lowerback 8.28779 3.84668 1.35768
upperback 3.89859 5.18625 -1.01178
thorax -0.381359 2.61663 -2.22871
lowerneck -0.332376 -5.08298 -5.39808
upperneck 4.16261 -6.82155 3.47363
head 1.69821 -3.42956 1.9005
rclavicle -8.00108e-014 2.74323e-014
rhumerus 5.34264 -0.421769 -49.0627
rradius 90.2253
rwrist 0.0326514
rhand -25.809 14.7918
rfingers 7.12502
rthumb 0.730218 -15.1867
lclavicle -8.00108e-014 2.74323e-014
lhumerus -26.0104 -3.7562 54.3638
lradius 103.367
lwrist 5.10358
lhand -24.0316 24.4268
lfingers 7.12502
lthumb 2.44681 54.3925
rfemur -19.0457 4.65671 16.1683
rtibia 35.9211
rfoot -17.9294 -11.4779
rtoes -9.7312
lfemur -12.9306 4.28043 -21.7104
ltibia 31.0083
lfoot -20.4354 10.8987
ltoes -11.7013
1750
root -0.394096 17.7219 -2.25791 1.77213 -5.41181 3.6913
lowerback 8.23626 3.84218 0.817932
upperback 3.78376 5.13787 -1.21191
thorax -0.503586 2.58566 -2.13347
lowerneck -0.329873 -5.1319 -5.45645
upperneck 4.22724 -6.88252 3.36885
head 1.71943 -3.4628 1.87454
rclavicle 6.1822e-014 -1.31198e-014
rhumerus 5.20657 0.358003 -50.06
rradius 90.9557
rwrist 0.236529
rhand -25.9516 15.1992
rfingers 7.12502
rthumb 0.592479 -14.7797
lclavicle 6.1822e-014 -1.31198e-014
lhumerus -26.9937 -3.31557 54.9346
lradius 104.02
lwrist 5.13854
lhand -24.8778 24.3905
lfingers 7.12502
lthumb 1.62954 54.3641
rfemur -19.468 4.36617 15.2175
rtibia 36.238
rfoot -18.0468 -11.2739
rtoes -10.0767
lfemur -13.1194 4.18707 -22.6604
ltibia 30.9544
lfoot -20.417 10.9817
ltoes -11.3625
1751
root -0.387166 17.7157 -2.26031 1.82511 -5.42684 4.23071
lowerback 8.30085 3.84636 0.42151
upperback 3.71244 5.11222 -1.27923
thorax -0.642648 2.56716 -1.98985
lowerneck -0.390493 -5.1867 -5.5321
upperneck 4.30521 -6.9453 3.20568
head 1.75426 -3.49777 1.83082
rclavicle -4.80065e-014 2.78299e-014
rhumerus 5.049 1.09701 -50.9766
rradius 91.7346
rwrist 0.32242
rhand -25.9815 15.8148
rfingers 7.12502
rthumb 0.563647 -14.1642
lclavicle -4.80065e-014 2.78299e-014
lhumerus -27.941 -2.81226 55.6074
lradius 104.711
lwrist 5.50368
lhand -25.7203 24.0958
lfingers 7.12502
lthumb 0.815844 54.0739
rfemur -19.7984 4.18153 14.5669
rtibia 36.6217
rfoot -18.2036 -11.109
rtoes -10.0308
lfemur -13.1822 4.1807 -23.3
ltibia 30.8617
lfoot -20.3485 11.0432
ltoes -11.3521
1752
root -0.385041 17.7106 -2.2622 1.8393 -5.44955 4.35851
lowerback 8.28911 3.85745 0.451137
upperback 3.7701 5.12971 -1.26814
thorax -0.574355 2.57703 -1.99265
lowerneck -0.573605 -5.24765 -5.46714
upperneck 4.37897 -7.01054 3.00238
head 1.8013 -3.53155 1.7463
rclavicle -1.88845e-015 7.15625e-015
rhumerus 4.86267 1.68108 -51.9859
rradius 92.7045
rwrist 0.438605
rhand -26.9105 16.4984
rfingers 7.12502
rthumb -0.333642 -13.4811
lclavicle -1.88845e-015 7.15625e-015
lhumerus -28.6742 -2.31626 56.3351
lradius 105.249
lwrist 6.02067
lhand -26.6551 23.3248
lfingers 7.12502
lthumb -0.0869591 53.3045
rfemur -20.0341 4.1217 14.4148
rtibia 37.0067
rfoot -18.3674 -11.084
rtoes -10.0408
lfemur -13.1852 4.19143 -23.4532
ltibia 30.7963
lfoot -20.3077 11.1497
ltoes -11.7491
1753
root -0.38617 17.7033 -2.26694 1.83132 -5.43495 4.42597
lowerback 8.21755 3.86199 0.570122
upperback 3.89217 5.14556 -1.28597
thorax -0.395948 2.58894 -2.06661
lowerneck -0.680605 -5.32506 -5.41525
upperneck 4.32387 -7.10569 2.93164
head 1.80104 -3.57816 1.70952
rclavicle -3.08116e-015 -1.63003e-014
rhumerus 4.55328 2.19492 -53.111
rradius 93.7576
rwrist 0.990513
rhand -28.1279 16.7771
rfingers 7.12502
rthumb -1.50942 -13.1974
lclavicle -3.08116e-015 -1.63003e-014
lhumerus -29.2135 -1.87436 57.04
lradius 105.709
lwrist 6.25923
lhand -27.3379 22.4796
lfingers 7.12502
lthumb -0.746405 52.458
rfemur -20.207 4.11643 14.3487
rtibia 37.3139
rfoot -18.5203 -11.0841
rtoes -10.0788
lfemur -13.2399 4.2333 -23.5138
ltibia 30.8634
lfoot -20.3428 11.0711
ltoes -11.872
1754
root -0.38809 17.6932 -2.2723 1.80609 -5.45051 4.5629
lowerback 8.19985 3.8993 0.609022
upperback 3.99257 5.19821 -1.32745
thorax -0.272782 2.61802 -2.12854
lowerneck -0.660987 -5.43017 -5.33205
upperneck 4.17244 -7.24417 2.86543
head 1.74776 -3.64617 1.67205
rclavicle -3.75703e-014 7.55382e-015
rhumerus 4.14763 2.70922 -54.1155
rradius 94.6564
rwrist 1.88446
rhand -29.0425 16.6545
rfingers 7.12502
rthumb -2.39278 -13.3119
lclavicle -3.75703e-014 7.55382e-015
lhumerus -29.6735 -1.57988 57.6928
lradius 106.225
lwrist 6.69912
lhand -27.8168 21.9233
lfingers 7.12502
lthumb -1.20902 51.8996
rfemur -20.3767 4.12546 14.208
rtibia 37.5906
rfoot -18.5575 -11.1527
rtoes -10.4855
lfemur -13.3346 4.36356 -23.6478
ltibia 31.0209
lfoot -20.3389 10.9337
ltoes -11.8703
